0
SECTION
2
HEADER
9
$ACADVER
1
AC1015
9
$INSUNITS
70
4
0
ENDSEC
0
SECTION
2
TABLES
0
TABLE
2
LAYER
70
1
0
LAYER
2
CUT
70
0
62
7
6
CONTINUOUS
0
ENDTAB
0
ENDSEC
0
SECTION
2
ENTITIES
0
LWPOLYLINE
8
CUT
90
4
70
1
10
0
20
0
10
100
20
0
10
100
20
20
10
0
20
20
0
LINE
8
CUT
10
10
20
0
30
0
11
10
21
20
31
0
0
LINE
8
CUT
10
20
20
0
30
0
11
20
21
20
31
0
0
LINE
8
CUT
10
30
20
0
30
0
11
30
21
20
31
0
0
LINE
8
CUT
10
40
20
0
30
0
11
40
21
20
31
0
0
LINE
8
CUT
10
50
20
0
30
0
11
50
21
20
31
0
0
LINE
8
CUT
10
60
20
0
30
0
11
60
21
20
31
0
0
LINE
8
CUT
10
70
20
0
30
0
11
70
21
20
31
0
0
LINE
8
CUT
10
80
20
0
30
0
11
80
21
20
31
0
0
LINE
8
CUT
10
90
20
0
30
0
11
90
21
20
31
0
0
ENDSEC
0
EOF
